<svg width="216" height="216" viewBox="0 0 216 216" fill="none" xmlns="http://www.w3.org/2000/svg">
<path d="M198 108C198 157.706 157.706 198 108 198C58.2944 198 18 157.706 18 108C18 58.2944 58.2944 18 108 18C157.706 18 198 58.2944 198 108ZM33.1486 108C33.1486 149.339 66.6607 182.851 108 182.851C149.339 182.851 182.851 149.339 182.851 108C182.851 66.6607 149.339 33.1486 108 33.1486C66.6607 33.1486 33.1486 66.6607 33.1486 108Z" fill="#EEF0FA"/>
<path d="M69.0706 53.5974C66.1448 49.5087 60.414 48.5286 56.7042 51.922C51.539 56.6468 47.0404 62.0725 43.3456 68.0524C38.052 76.62 34.514 86.1542 32.9373 96.101C31.3605 106.048 31.7764 116.209 34.1608 125.994C35.825 132.823 38.425 139.374 41.8758 145.465C44.3542 149.839 50.1072 150.679 54.1541 147.696C58.2009 144.712 58.9895 139.037 56.6779 134.572C54.5659 130.493 52.9428 126.167 51.8501 121.683C50.0369 114.242 49.7207 106.516 50.9197 98.9516C52.1187 91.3877 54.8092 84.1375 58.8346 77.6225C61.2604 73.6963 64.1419 70.0844 67.4118 66.8584C70.991 63.3274 71.9964 57.6861 69.0706 53.5974Z" fill="url(#paint0_linear_1_174)"/>
<path d="M57.4514 64.1824C53.6523 60.8893 53.2092 55.092 56.9327 51.7137C66.8002 42.761 78.8924 36.5219 92.0223 33.6985C105.152 30.8751 118.74 31.592 131.416 35.697C136.199 37.2461 138.178 42.713 136.068 47.2768C133.959 51.8405 128.557 53.7531 123.719 52.3857C114.685 49.8323 105.117 49.5057 95.85 51.4986C86.5826 53.4914 77.9951 57.722 70.8092 63.7633C66.9608 66.9987 61.2504 67.4756 57.4514 64.1824Z" fill="url(#paint1_linear_1_174)"/>
<path d="M170.265 133.678C174.945 135.608 177.221 141.002 174.746 145.419C168.689 156.221 160.077 165.435 149.606 172.219C136.561 180.67 121.252 184.949 105.715 184.485C90.1782 184.021 75.1513 178.836 62.6341 169.62C52.5874 162.224 44.54 152.512 39.1396 141.367C36.9319 136.811 39.5262 131.563 44.3134 129.915C49.1007 128.268 54.2553 130.861 56.6334 135.33C60.7065 142.986 66.4587 149.669 73.5037 154.856C83.0218 161.864 94.4483 165.806 106.262 166.159C118.077 166.512 129.718 163.259 139.638 156.832C146.98 152.075 153.121 145.747 157.643 138.348C160.284 134.029 165.584 131.748 170.265 133.678Z" fill="url(#paint2_linear_1_174)"/>
<path d="M108 41.1035C108 36.0758 112.09 31.9437 117.082 32.5445C129.298 34.0148 141.022 38.4359 151.217 45.4839C163.919 54.2645 173.645 66.7056 179.099 81.151C184.554 95.5964 185.48 111.361 181.753 126.345C178.761 138.373 172.885 149.44 164.691 158.618C161.342 162.368 155.541 161.971 152.218 158.199C148.895 154.426 149.326 148.712 152.531 144.838C158.023 138.199 161.986 130.385 164.084 121.95C166.918 110.556 166.215 98.5679 162.066 87.5831C157.918 76.5983 150.523 67.1377 140.864 60.4606C133.714 55.5178 125.575 52.274 117.066 50.9225C112.101 50.1337 108 46.1312 108 41.1035Z" fill="url(#paint3_linear_1_174)"/>
<defs>
<linearGradient id="paint0_linear_1_174" x1="108" y1="32" x2="35.9767" y2="135.395" gradientUnits="userSpaceOnUse">
<stop stop-color="#7000FF"/>
<stop offset="1" stop-color="#F1E7FE"/>
</linearGradient>
<linearGradient id="paint1_linear_1_174" x1="120" y1="25.5001" x2="52.5" y2="67.0001" gradientUnits="userSpaceOnUse">
<stop stop-color="#00D1FF"/>
<stop offset="1" stop-color="#E2FAFF"/>
</linearGradient>
<linearGradient id="paint2_linear_1_174" x1="160.397" y1="186.945" x2="27.5533" y2="94.1116" gradientUnits="userSpaceOnUse">
<stop stop-color="#1B76FF"/>
<stop offset="1" stop-color="#B3D0FC"/>
</linearGradient>
<linearGradient id="paint3_linear_1_174" x1="120.814" y1="14.7674" x2="158.814" y2="171.186" gradientUnits="userSpaceOnUse">
<stop stop-color="#F9637D"/>
<stop offset="1" stop-color="#FCAFBC"/>
</linearGradient>
</defs>
</svg>
